<svg xmlns="http://www.w3.org/2000/svg" width="132" height="36" viewBox="0 0 132 36">
  <g id="LOGO" transform="translate(-12.562 13.776)">
    <rect id="Header_BG" width="132" height="36" transform="translate(12.562 -13.776)" fill="#fff" opacity="0"/>
    <g id="SYMA" transform="translate(-4.533 -20.221)">
      <path id="Path_3" data-name="Path 3" d="M107.989,15.794H100.87L91.411,28.559,81.839,15.793H71.473l-6.51,7.1-6.684-7.1H37.415a5.494,5.494,0,0,0-5.5,5.336,5.315,5.315,0,0,0,5.509,5.525l12.335.006c.6,0,1.1.208,1.112,1a1,1,0,0,1-1.1,1.122l-17.868,0v4.457l19.132,0a5.368,5.368,0,0,0,5.142-5.644,5.122,5.122,0,0,0-5.128-5.373l-12.069.008c-.587,0-.917-.689-.92-1.114a1.032,1.032,0,0,1,.878-.989L55.3,20.1l6.787,7.3v5.849h5.537l.022-5.7,6.66-7.192-.019,12.895h5.538l.01-10.717L87.94,33.243h7.122l7.39-9.97v7.111l5.537-7.5Z" transform="translate(0 0)" fill="#ec1c24" fill-rule="evenodd"/>
      <path id="Path_4" data-name="Path 4" d="M455.127,33.26H478.3l-12.45-17.444-6.929,0-12.8,17.446h6.938l9.219-12.568,5.873,8.143h-9.76Z" transform="translate(-343.454 -0.017)" fill="#ec1c24" fill-rule="evenodd"/>
    </g>
  </g>
</svg>
