<?xml version="1.0" encoding="utf-8"?>
<!-- Generator: Adobe Illustrator 25.0.0, SVG Export Plug-In . SVG Version: 6.00 Build 0)  -->
<svg version="1.1" id="Layer_1" xmlns="http://www.w3.org/2000/svg" xmlns:xlink="http://www.w3.org/1999/xlink" x="0px" y="0px"
	 viewBox="0 0 221.9 43.6" style="enable-background:new 0 0 221.9 43.6;" xml:space="preserve">
<style type="text/css">
	.st0{fill:#ED2024;}
	.st1{fill-rule:evenodd;clip-rule:evenodd;fill:#ED2024;}
</style>
<g>
	<g>
		<path d="M63.4,14.5l-0.7-0.7c-0.4-0.4-1-0.4-1.4,0l-6.9,6.9c-0.2,0.2-0.3,0.5-0.3,0.8c0,0,0,0.1,0,0.1v7.5c0,0.6,0.4,1,1,1h1
			c0.6,0,1-0.4,1-1v-6.8l6.4-6.4C63.8,15.5,63.8,14.9,63.4,14.5z"/>
		<path class="st0" d="M48.4,13.8l-0.7,0.7c-0.4,0.4-0.4,1,0,1.4l3.6,3.6l2.1-2.1l-3.6-3.6C49.5,13.4,48.8,13.4,48.4,13.8z"/>
		<path d="M38.8,13.5h-1c0,0,0,0,0,0c-0.1,0-0.2,0-0.4,0.1c-0.1,0.1-0.2,0.1-0.3,0.2L26.5,24.4L15.9,13.8c-0.1-0.1-0.2-0.2-0.3-0.2
			c0,0,0,0,0,0c-0.1,0-0.2-0.1-0.3-0.1h-1c-0.6,0-1,0.4-1,1v14.6c0,0.6,0.4,1,1,1h1c0.6,0,1-0.4,1-1V18.3l6.7,6.7l1.9,2
			c0.2,0.2,0.4,0.3,0.7,0.3l0,0h2l0,0c0.3,0,0.5-0.1,0.7-0.3l1.9-2l6.7-6.7l0,0l3-3v-0.8C39.8,13.9,39.4,13.5,38.8,13.5z"/>
		<path class="st0" d="M36.8,29.1c0,0.6,0.4,1,1,1h1c0.6,0,1-0.4,1-1v-9.5l-3,3C36.8,22.5,36.8,29.1,36.8,29.1z"/>
	</g>
</g>
<g>
	<path class="st1" d="M174.3,10.3h-9.4l-12.5,16.8l-12.6-16.8h-13.6l-8.6,9.3l-8.8-9.3H81.4c-4,0-7.2,3.3-7.2,7
		c0,4.5,3.3,7.3,7.2,7.3l16.2,0c0.8,0,1.4,0.3,1.5,1.3c0,1.1-0.7,1.5-1.4,1.5H74.1v5.9l25.2,0c3.7,0,6.8-3.2,6.8-7.4s-3-7.1-6.8-7.1
		l-15.9,0c-0.8,0-1.2-0.9-1.2-1.5s0.5-1.3,1.2-1.3l21.5,0l8.9,9.6v7.7h7.3l0-7.5l8.8-9.5l0,17h7.3l0-14.1l10.7,14.1h9.4l9.7-13.1
		v9.4l7.3-9.9L174.3,10.3z"/>
	<polygon class="st1" points="179.2,33.3 209.7,33.3 193.3,10.3 184.2,10.3 167.3,33.3 176.5,33.3 188.6,16.7 196.3,27.5 
		183.5,27.5 	"/>
</g>
</svg>
